<svg id="visual" viewBox="0 0 900 600" width="900" height="600" xmlns="http://www.w3.org/2000/svg" xmlns:xlink="http://www.w3.org/1999/xlink" version="1.1"><rect x="0" y="0" width="900" height="600" fill="#07553B"></rect><defs><linearGradient id="grad1_0" x1="33.3%" y1="0%" x2="100%" y2="100%"><stop offset="20%" stop-color="#07553b" stop-opacity="1"></stop><stop offset="80%" stop-color="#07553b" stop-opacity="1"></stop></linearGradient></defs><defs><linearGradient id="grad2_0" x1="0%" y1="0%" x2="66.7%" y2="100%"><stop offset="20%" stop-color="#07553b" stop-opacity="1"></stop><stop offset="80%" stop-color="#07553b" stop-opacity="1"></stop></linearGradient></defs><g transform="translate(900, 0)"><path d="M0 351.5C-37.3 340.1 -74.5 328.7 -97 298.6C-119.5 268.6 -127.2 219.8 -139.9 192.5C-152.5 165.3 -170.1 159.4 -208.7 151.6C-247.3 143.9 -307 134.2 -334.3 108.6C-361.6 83 -356.6 41.5 -351.5 0L0 0Z" fill="#CED46A"></path></g><g transform="translate(0, 600)"><path d="M0 -351.5C43.3 -358.9 86.6 -366.2 108.6 -334.3C130.7 -302.5 131.6 -231.5 140.5 -193.4C149.4 -155.3 166.4 -150.1 193.4 -140.5C220.3 -130.9 257.3 -116.9 285.3 -92.7C313.3 -68.6 332.4 -34.3 351.5 0L0 0Z" fill="#CED46A"></path></g></svg>